<svg width="100" height="100" viewBox="0 0 100 100" fill="none" xmlns="http://www.w3.org/2000/svg">
<rect width="100" height="100" rx="50" fill="#F5F5F5"/>
<path d="M51.264 74.3262C64.3335 74.3262 74.9284 63.1598 74.9284 49.3853C74.9284 35.6108 64.3335 24.4443 51.264 24.4443C38.1945 24.4443 27.5996 35.6108 27.5996 49.3853C27.5996 63.1598 38.1945 74.3262 51.264 74.3262Z" fill="#424242"/>
<path d="M51.4014 79.9999C63.0172 79.9999 72.4336 70.0756 72.4336 57.8332C72.4336 45.5909 63.0172 35.6665 51.4014 35.6665C39.7856 35.6665 30.3691 45.5909 30.3691 57.8332C30.3691 70.0756 39.7856 79.9999 51.4014 79.9999Z" fill="#EEE6E7"/>
<path d="M42.1451 45.7251C44.132 45.376 45.8981 44.15 47.9104 44.0426C50.4577 43.9084 52.7588 45.6266 54.5504 47.3985C56.342 49.1704 58.0827 51.1929 60.5451 51.9625C62.1187 52.3513 63.7421 52.4661 65.351 52.3026C66.2456 52.3503 67.1331 52.1133 67.8983 51.6225C68.2833 51.2462 68.5749 50.776 68.7474 50.2533C69.4339 48.5863 69.7818 46.7864 69.7686 44.9693C69.7555 43.1521 69.3816 41.3581 68.671 39.7024C68.4719 39.3595 68.3882 38.956 68.4332 38.5569C68.51 38.3198 68.6345 38.1031 68.7983 37.9215C70.4965 35.8096 72.2882 33.6976 72.9759 31.1381C73.6637 28.5787 72.8231 25.4286 70.3182 24.2921C69.6934 24.0085 69.0202 23.8622 68.3398 23.8622C67.6595 23.8622 66.9863 24.0085 66.3614 24.2921C65.1896 24.8559 64.2811 25.903 62.965 26.1804C60.8337 26.6458 59.0082 24.8381 57.3439 23.4957C54.7765 21.4952 51.7232 20.3035 48.5388 20.0592C47.1248 19.8885 45.6928 20.0883 44.3697 20.641C43.1336 21.3795 41.9922 22.2818 40.9733 23.3257C37.1778 26.5563 31.8624 27.4601 27.1075 29.223C26.1989 29.5631 25.1885 30.0643 25.0187 31.0128C24.8488 31.9614 25.8678 32.919 26.8867 33.3307C27.9056 33.7423 29.0774 34.0108 29.7567 34.8431C30.6058 35.9169 30.334 37.4383 30.4869 38.7896C30.801 41.4743 33.0342 42.933 35.5051 43.7115C37.4325 44.329 40.1157 46.083 42.1451 45.7251Z" fill="#424242"/>
</svg>
