<svg width="68" height="68" viewBox="0 0 68 68" fill="none" xmlns="http://www.w3.org/2000/svg">
<g clip-path="url(#clip0_308_450)">
<path d="M37.4903 15.8647C37.4903 15.3124 37.0426 14.8647 36.4903 14.8647H34.2174C33.6651 14.8647 33.2174 15.3124 33.2174 15.8647V30.8049C33.2174 31.3572 32.7696 31.8049 32.2174 31.8049H17.2771C16.7248 31.8049 16.2771 32.2526 16.2771 32.8049V35.0779C16.2771 35.6302 16.7248 36.0779 17.2771 36.0779H32.2174C32.7696 36.0779 33.2174 36.5256 33.2174 37.0779V52.0181C33.2174 52.5704 33.6651 53.0181 34.2174 53.0181H36.4903C37.0426 53.0181 37.4903 52.5704 37.4903 52.0181V37.0779C37.4903 36.5256 37.938 36.0779 38.4903 36.0779H53.4306C53.9828 36.0779 54.4306 35.6302 54.4306 35.0779V32.8049C54.4306 32.2526 53.9828 31.8049 53.4306 31.8049L38.4903 31.8049C37.938 31.8049 37.4903 31.3572 37.4903 30.8049L37.4903 15.8647Z" fill="white"/>
</g>
<defs>
<clipPath id="clip0_308_450">
<rect width="48" height="48" fill="white" transform="translate(0 33.9414) rotate(-45)"/>
</clipPath>
</defs>
</svg>
