<svg width="24" height="24" viewBox="0 0 24 24" fill="none" xmlns="http://www.w3.org/2000/svg">
<g clip-path="url(#clip0_123_757)">
<path d="M2.95478 12.5C2.95478 12.7761 3.17864 13 3.45478 13L15.7157 13C16.159 13 16.3831 13.534 16.0725 13.8503L13.7268 16.2392C13.5356 16.4339 13.5359 16.7459 13.7273 16.9403L14.4145 17.6382C14.6103 17.8371 14.9311 17.8371 15.127 17.6382L20.3333 12.3508C20.5249 12.1562 20.5249 11.8438 20.3333 11.6492L15.127 6.36182C14.9311 6.1629 14.6103 6.16291 14.4145 6.36182L13.7273 7.05968C13.5359 7.2541 13.5356 7.56611 13.7268 7.7608L16.0725 10.1497C16.3831 10.466 16.159 11 15.7157 11L3.45478 11C3.17864 11 2.95478 11.2239 2.95478 11.5V12.5Z" fill="#F5F5F5"/>
</g>
<defs>
<clipPath id="clip0_123_757">
<rect width="23.6319" height="24" fill="white" transform="translate(23.6328 24) rotate(-180)"/>
</clipPath>
</defs>
</svg>
