<svg width="24" height="24" viewBox="0 0 24 24" fill="none" xmlns="http://www.w3.org/2000/svg">
<path d="M19.2929 7.21782C19.6834 6.8273 19.6834 6.19413 19.2929 5.80361L19.1964 5.70711C18.8059 5.31658 18.1727 5.31658 17.7822 5.70711L13.2071 10.2822C12.8166 10.6727 12.1834 10.6727 11.7929 10.2822L7.21782 5.70711C6.8273 5.31658 6.19413 5.31658 5.80361 5.70711L5.70711 5.80361C5.31658 6.19413 5.31658 6.8273 5.70711 7.21782L10.2822 11.7929C10.6727 12.1834 10.6727 12.8166 10.2822 13.2071L5.70711 17.7822C5.31658 18.1727 5.31658 18.8059 5.70711 19.1964L5.80361 19.2929C6.19413 19.6834 6.8273 19.6834 7.21782 19.2929L11.7929 14.7178C12.1834 14.3273 12.8166 14.3273 13.2071 14.7178L17.7822 19.2929C18.1727 19.6834 18.8059 19.6834 19.1964 19.2929L19.2929 19.1964C19.6834 18.8059 19.6834 18.1727 19.2929 17.7822L14.7178 13.2071C14.3273 12.8166 14.3273 12.1834 14.7178 11.7929L19.2929 7.21782Z" fill="#F5F5F5"/>
</svg>
