<svg width="24" height="24" viewBox="0 0 24 24" fill="none" xmlns="http://www.w3.org/2000/svg">
<path d="M7.08886 24C6.48811 24 5.97747 23.7897 5.55695 23.3692C5.13642 22.9487 4.92616 22.438 4.92616 21.8373C4.92616 21.2365 5.13642 20.7259 5.55695 20.3054C5.97747 19.8849 6.48811 19.6746 7.08886 19.6746C7.66959 19.6746 8.17522 19.8849 8.60576 20.3054C9.03629 20.7259 9.25156 21.2365 9.25156 21.8373C9.25156 22.438 9.0413 22.9487 8.62078 23.3692C8.20025 23.7897 7.68961 24 7.08886 24ZM19.1039 24C18.5031 24 17.9925 23.7897 17.572 23.3692C17.1514 22.9487 16.9412 22.438 16.9412 21.8373C16.9412 21.2365 17.1514 20.7259 17.572 20.3054C17.9925 19.8849 18.5031 19.6746 19.1039 19.6746C19.6846 19.6746 20.1902 19.8849 20.6208 20.3054C21.0513 20.7259 21.2666 21.2365 21.2666 21.8373C21.2666 22.438 21.0563 22.9487 20.6358 23.3692C20.2153 23.7897 19.7046 24 19.1039 24ZM5.52691 4.17522L8.83104 11.0238H17.4819L21.2365 4.17522H5.52691ZM4.62578 2.37297H22.3179C22.9587 2.37297 23.3642 2.56821 23.5344 2.9587C23.7046 3.34919 23.6496 3.78473 23.3692 4.26533L19.3141 11.5645C19.1139 11.9049 18.8335 12.2003 18.4731 12.4506C18.1126 12.7009 17.7222 12.826 17.3016 12.826H8.20025L6.51815 15.9499H21.2666V17.7522H6.78849C5.94743 17.7522 5.34168 17.4718 4.97121 16.9111C4.60075 16.3504 4.60576 15.7196 4.98623 15.0188L6.90864 11.4743L2.34293 1.80225H0V0H3.51439L4.62578 2.37297Z" fill="white"/>
</svg>
