<svg width="24" height="24" viewBox="0 0 24 24" fill="none" xmlns="http://www.w3.org/2000/svg">
<path fill-rule="evenodd" clip-rule="evenodd" d="M4.81467 1H7.26867C7.75189 0.999984 8.16875 0.99997 8.51211 1.02802C8.87451 1.05763 9.23496 1.12301 9.58181 1.29973C10.0993 1.56339 10.52 1.98408 10.7836 2.50153C10.9603 2.84838 11.0257 3.20883 11.0553 3.57123C11.0834 3.91459 11.0834 4.33146 11.0833 4.81469V7.26865C11.0834 7.75187 11.0834 8.16875 11.0553 8.51211C11.0257 8.87451 10.9603 9.23496 10.7836 9.58181C10.52 10.0993 10.0993 10.52 9.58181 10.7836C9.23496 10.9603 8.87451 11.0257 8.51211 11.0553C8.16875 11.0834 7.75187 11.0834 7.26865 11.0833H4.81469C4.33146 11.0834 3.91459 11.0834 3.57123 11.0553C3.20883 11.0257 2.84838 10.9603 2.50153 10.7836C1.98408 10.52 1.56339 10.0993 1.29973 9.58181C1.12301 9.23496 1.05763 8.87451 1.02802 8.51211C0.99997 8.16875 0.999984 7.75189 1 7.26867V4.81467C0.999984 4.33145 0.99997 3.91458 1.02802 3.57123C1.05763 3.20883 1.12301 2.84838 1.29973 2.50153C1.56339 1.98408 1.98408 1.56339 2.50153 1.29973C2.84838 1.12301 3.20883 1.05763 3.57123 1.02802C3.91458 0.99997 4.33145 0.999984 4.81467 1ZM3.72052 2.85527C3.47149 2.87561 3.37917 2.91015 3.33384 2.93325C3.16136 3.02113 3.02113 3.16136 2.93325 3.33384C2.91015 3.37917 2.87561 3.47149 2.85527 3.72052C2.83405 3.98024 2.83333 4.32149 2.83333 4.85V7.23333C2.83333 7.76184 2.83405 8.10309 2.85527 8.36282C2.87561 8.61184 2.91015 8.70417 2.93325 8.74949C3.02113 8.92197 3.16136 9.06221 3.33384 9.15009C3.37917 9.17318 3.47149 9.20772 3.72052 9.22807C3.98024 9.24929 4.32149 9.25 4.85 9.25H7.23333C7.76184 9.25 8.10309 9.24929 8.36282 9.22807C8.61184 9.20772 8.70417 9.17318 8.74949 9.15009C8.92197 9.06221 9.06221 8.92197 9.15009 8.74949C9.17318 8.70417 9.20772 8.61184 9.22807 8.36282C9.24929 8.10309 9.25 7.76184 9.25 7.23333V4.85C9.25 4.32149 9.24929 3.98024 9.22807 3.72052C9.20772 3.47149 9.17318 3.37917 9.15009 3.33384C9.06221 3.16136 8.92197 3.02113 8.74949 2.93325C8.70417 2.91015 8.61184 2.87561 8.36282 2.85527C8.10309 2.83405 7.76184 2.83333 7.23333 2.83333H4.85C4.32149 2.83333 3.98024 2.83405 3.72052 2.85527Z" fill="#F5F5F5" fill-opacity="0.5"/>
<path fill-rule="evenodd" clip-rule="evenodd" d="M4.81467 12.9167H7.26867C7.75189 12.9166 8.16875 12.9166 8.51211 12.9447C8.87451 12.9743 9.23496 13.0397 9.58181 13.2164C10.0993 13.4801 10.52 13.9007 10.7836 14.4182C10.9603 14.765 11.0257 15.1255 11.0553 15.4879C11.0834 15.8313 11.0834 16.2481 11.0833 16.7314V19.1853C11.0834 19.6685 11.0834 20.0854 11.0553 20.4288C11.0257 20.7912 10.9603 21.1516 10.7836 21.4985C10.52 22.0159 10.0993 22.4366 9.58181 22.7003C9.23496 22.877 8.87451 22.9424 8.51211 22.972C8.16875 23 7.75187 23 7.26865 23H4.81469C4.33146 23 3.91459 23 3.57123 22.972C3.20883 22.9424 2.84838 22.877 2.50153 22.7003C1.98408 22.4366 1.56339 22.0159 1.29973 21.4985C1.12301 21.1516 1.05763 20.7912 1.02802 20.4288C0.99997 20.0854 0.999984 19.6686 1 19.1853V16.7313C0.999984 16.2481 0.99997 15.8312 1.02802 15.4879C1.05763 15.1255 1.12301 14.765 1.29973 14.4182C1.56339 13.9007 1.98408 13.4801 2.50153 13.2164C2.84838 13.0397 3.20883 12.9743 3.57123 12.9447C3.91458 12.9166 4.33145 12.9166 4.81467 12.9167ZM3.72052 14.7719C3.47149 14.7923 3.37917 14.8268 3.33384 14.8499C3.16136 14.9378 3.02113 15.078 2.93325 15.2505C2.91015 15.2958 2.87561 15.3882 2.85527 15.6372C2.83405 15.8969 2.83333 16.2382 2.83333 16.7667V19.15C2.83333 19.6785 2.83405 20.0198 2.85527 20.2795C2.87561 20.5285 2.91015 20.6208 2.93325 20.6662C3.02113 20.8386 3.16136 20.9789 3.33384 21.0668C3.37917 21.0898 3.47149 21.1244 3.72052 21.1447C3.98024 21.166 4.32149 21.1667 4.85 21.1667H7.23333C7.76184 21.1667 8.10309 21.166 8.36282 21.1447C8.61184 21.1244 8.70417 21.0898 8.74949 21.0668C8.92197 20.9789 9.06221 20.8386 9.15009 20.6662C9.17318 20.6208 9.20772 20.5285 9.22807 20.2795C9.24929 20.0198 9.25 19.6785 9.25 19.15V16.7667C9.25 16.2382 9.24929 15.8969 9.22807 15.6372C9.20772 15.3882 9.17318 15.2958 9.15009 15.2505C9.06221 15.078 8.92197 14.9378 8.74949 14.8499C8.70417 14.8268 8.61184 14.7923 8.36282 14.7719C8.10309 14.7507 7.76184 14.75 7.23333 14.75H4.85C4.32149 14.75 3.98024 14.7507 3.72052 14.7719Z" fill="#F5F5F5" fill-opacity="0.5"/>
<path fill-rule="evenodd" clip-rule="evenodd" d="M16.7313 1H19.1853C19.6686 0.999984 20.0854 0.99997 20.4288 1.02802C20.7912 1.05763 21.1516 1.12301 21.4985 1.29973C22.0159 1.56339 22.4366 1.98408 22.7003 2.50153C22.877 2.84838 22.9424 3.20883 22.972 3.57123C23 3.91459 23 4.33146 23 4.81469V7.26865C23 7.75187 23 8.16875 22.972 8.51211C22.9424 8.87451 22.877 9.23496 22.7003 9.58181C22.4366 10.0993 22.0159 10.52 21.4985 10.7836C21.1516 10.9603 20.7912 11.0257 20.4288 11.0553C20.0854 11.0834 19.6685 11.0834 19.1853 11.0833H16.7314C16.2481 11.0834 15.8313 11.0834 15.4879 11.0553C15.1255 11.0257 14.765 10.9603 14.4182 10.7836C13.9007 10.52 13.4801 10.0993 13.2164 9.58181C13.0397 9.23496 12.9743 8.87451 12.9447 8.51211C12.9166 8.16875 12.9166 7.75189 12.9167 7.26867V4.81467C12.9166 4.33145 12.9166 3.91458 12.9447 3.57123C12.9743 3.20883 13.0397 2.84838 13.2164 2.50153C13.4801 1.98408 13.9007 1.56339 14.4182 1.29973C14.765 1.12301 15.1255 1.05763 15.4879 1.02802C15.8312 0.99997 16.2481 0.999984 16.7313 1ZM15.6372 2.85527C15.3882 2.87561 15.2958 2.91015 15.2505 2.93325C15.078 3.02113 14.9378 3.16136 14.8499 3.33384C14.8268 3.37917 14.7923 3.47149 14.7719 3.72052C14.7507 3.98024 14.75 4.32149 14.75 4.85V7.23333C14.75 7.76184 14.7507 8.10309 14.7719 8.36282C14.7923 8.61184 14.8268 8.70417 14.8499 8.74949C14.9378 8.92197 15.078 9.06221 15.2505 9.15009C15.2958 9.17318 15.3882 9.20772 15.6372 9.22807C15.8969 9.24929 16.2382 9.25 16.7667 9.25H19.15C19.6785 9.25 20.0198 9.24929 20.2795 9.22807C20.5285 9.20772 20.6208 9.17318 20.6662 9.15009C20.8386 9.06221 20.9789 8.92197 21.0668 8.74949C21.0898 8.70417 21.1244 8.61184 21.1447 8.36282C21.166 8.10309 21.1667 7.76184 21.1667 7.23333V4.85C21.1667 4.32149 21.166 3.98024 21.1447 3.72052C21.1244 3.47149 21.0898 3.37917 21.0668 3.33384C20.9789 3.16136 20.8386 3.02113 20.6662 2.93325C20.6208 2.91015 20.5285 2.87561 20.2795 2.85527C20.0198 2.83405 19.6785 2.83333 19.15 2.83333H16.7667C16.2382 2.83333 15.8969 2.83405 15.6372 2.85527Z" fill="#F5F5F5" fill-opacity="0.5"/>
<path fill-rule="evenodd" clip-rule="evenodd" d="M16.7313 12.9167H19.1853C19.6686 12.9166 20.0854 12.9166 20.4288 12.9447C20.7912 12.9743 21.1516 13.0397 21.4985 13.2164C22.0159 13.4801 22.4366 13.9007 22.7003 14.4182C22.877 14.765 22.9424 15.1255 22.972 15.4879C23 15.8313 23 16.2481 23 16.7314V19.1853C23 19.6685 23 20.0854 22.972 20.4288C22.9424 20.7912 22.877 21.1516 22.7003 21.4985C22.4366 22.0159 22.0159 22.4366 21.4985 22.7003C21.1516 22.877 20.7912 22.9424 20.4288 22.972C20.0854 23 19.6685 23 19.1853 23H16.7314C16.2481 23 15.8313 23 15.4879 22.972C15.1255 22.9424 14.765 22.877 14.4182 22.7003C13.9007 22.4366 13.4801 22.0159 13.2164 21.4985C13.0397 21.1516 12.9743 20.7912 12.9447 20.4288C12.9166 20.0854 12.9166 19.6686 12.9167 19.1853V16.7313C12.9166 16.2481 12.9166 15.8312 12.9447 15.4879C12.9743 15.1255 13.0397 14.765 13.2164 14.4182C13.4801 13.9007 13.9007 13.4801 14.4182 13.2164C14.765 13.0397 15.1255 12.9743 15.4879 12.9447C15.8312 12.9166 16.2481 12.9166 16.7313 12.9167ZM15.6372 14.7719C15.3882 14.7923 15.2958 14.8268 15.2505 14.8499C15.078 14.9378 14.9378 15.078 14.8499 15.2505C14.8268 15.2958 14.7923 15.3882 14.7719 15.6372C14.7507 15.8969 14.75 16.2382 14.75 16.7667V19.15C14.75 19.6785 14.7507 20.0198 14.7719 20.2795C14.7923 20.5285 14.8268 20.6208 14.8499 20.6662C14.9378 20.8386 15.078 20.9789 15.2505 21.0668C15.2958 21.0898 15.3882 21.1244 15.6372 21.1447C15.8969 21.166 16.2382 21.1667 16.7667 21.1667H19.15C19.6785 21.1667 20.0198 21.166 20.2795 21.1447C20.5285 21.1244 20.6208 21.0898 20.6662 21.0668C20.8386 20.9789 20.9789 20.8386 21.0668 20.6662C21.0898 20.6208 21.1244 20.5285 21.1447 20.2795C21.166 20.0198 21.1667 19.6785 21.1667 19.15V16.7667C21.1667 16.2382 21.166 15.8969 21.1447 15.6372C21.1244 15.3882 21.0898 15.2958 21.0668 15.2505C20.9789 15.078 20.8386 14.9378 20.6662 14.8499C20.6208 14.8268 20.5285 14.7923 20.2795 14.7719C20.0198 14.7507 19.6785 14.75 19.15 14.75H16.7667C16.2382 14.75 15.8969 14.7507 15.6372 14.7719Z" fill="#F5F5F5" fill-opacity="0.5"/>
</svg>
