<svg width="12" height="17" viewBox="0 0 12 17" fill="none" xmlns="http://www.w3.org/2000/svg">
<path fill-rule="evenodd" clip-rule="evenodd" d="M6 2.27284C3.51472 2.27284 1.5 4.47071 1.5 7.18193C1.5 8.02291 1.77296 8.96295 2.23613 9.93741C2.69593 10.9048 3.3177 11.8531 3.95395 12.6959C4.58837 13.5363 5.22488 14.2557 5.70359 14.7655C5.81122 14.8801 5.91064 14.9839 6 15.0758C6.08935 14.9839 6.18878 14.8801 6.29641 14.7655C6.77512 14.2557 7.41163 13.5363 8.04605 12.6959C8.6823 11.8531 9.30407 10.9048 9.76387 9.93741C10.227 8.96295 10.5 8.02291 10.5 7.18193C10.5 4.47071 8.48528 2.27284 6 2.27284ZM6 16.1819C5.51191 16.8031 5.51177 16.803 5.51162 16.8029L5.51003 16.8014L5.50625 16.7978L5.4931 16.7854C5.48188 16.7748 5.46583 16.7595 5.44527 16.7397C5.40414 16.7002 5.34492 16.6427 5.27019 16.5687C5.12079 16.4207 4.90908 16.2062 4.65578 15.9364C4.15012 15.3979 3.47413 14.6344 2.79605 13.7361C2.1198 12.8403 1.42907 11.7943 0.904497 10.6907C0.383292 9.59409 0 8.3864 0 7.18193C0 3.56697 2.68629 0.636475 6 0.636475C9.31371 0.636475 12 3.56697 12 7.18193C12 8.3864 11.6167 9.59409 11.0955 10.6907C10.5709 11.7943 9.8802 12.8403 9.20395 13.7361C8.52587 14.6344 7.84988 15.3979 7.34422 15.9364C7.09092 16.2062 6.87921 16.4207 6.72981 16.5687C6.65508 16.6427 6.59586 16.7002 6.55473 16.7397C6.53417 16.7595 6.51812 16.7748 6.5069 16.7854L6.49375 16.7978L6.48997 16.8014L6.48879 16.8025C6.48864 16.8026 6.48809 16.8031 6 16.1819ZM6 16.1819L5.51162 16.8029C5.79248 17.0655 6.20723 17.0658 6.48809 16.8031L6 16.1819ZM6 5.54557C5.17157 5.54557 4.5 6.27819 4.5 7.18193C4.5 8.08567 5.17157 8.81829 6 8.81829C6.82843 8.81829 7.5 8.08567 7.5 7.18193C7.5 6.27819 6.82843 5.54557 6 5.54557ZM3 7.18193C3 5.37445 4.34315 3.9092 6 3.9092C7.65685 3.9092 9 5.37445 9 7.18193C9 8.98941 7.65685 10.4547 6 10.4547C4.34315 10.4547 3 8.98941 3 7.18193Z" fill="white"/>
</svg>
