<svg width="170" height="47" viewBox="0 0 170 47" fill="none" xmlns="http://www.w3.org/2000/svg">
<path d="M79.7438 3.35881C81.816 3.29062 79.1618 12.1392 78.0293 14.3157C76.8967 16.4921 65.0888 11.7358 61.9805 11.8381C59.0465 11.9346 26.7829 11.5896 23.1734 11.5506C22.9451 11.5481 22.7371 11.5262 22.5217 11.4848L18.522 10.7162C16.9669 10.4174 16.0847 9.17675 16.433 7.77836L17.6689 2.81655C18.0729 1.19453 19.9691 -0.0445017 21.8543 0.0815879L50.0256 1.96573C50.0436 1.96693 50.0438 1.96707 50.0618 1.96802C50.6368 1.99838 77.6936 3.42628 79.7438 3.35881Z" fill="black"/>
<path d="M81.21 3.42038L159.478 8.34062C166.858 8.80455 171.393 14.3136 169.608 20.6454L162.194 46.933L70.5638 41.1727L77.513 16.8857L79.8417 11.0068C80.029 10.5339 80.1616 10.054 80.2374 9.57449L81.21 3.42038Z" fill="black"/>
<path d="M26.7485 5.0988C26.5708 6.28829 25.2816 7.29025 23.8691 7.33673C22.4566 7.38322 21.4556 6.45663 21.6334 5.26713C21.8111 4.07764 23.1003 3.07568 24.5128 3.0292C25.9253 2.98271 26.9263 3.9093 26.7485 5.0988Z" fill="black"/>
<path d="M2.656 36.7012V14.3012H7.84V32.4772H19.072V36.7012H2.656ZM20.0798 36.7012V14.3012H25.2638V36.7012H20.0798ZM35.286 36.7012L25.622 14.3012H31.222L39.67 34.1412H36.374L44.95 14.3012H50.102L40.406 36.7012H35.286ZM54.8203 23.3252H65.6043V27.3572H54.8203V23.3252ZM55.2043 32.5412H67.3963V36.7012H50.0523V14.3012H66.9803V18.4612H55.2043V32.5412Z" fill="black"/>
<path d="M81.5435 24.3812H92.2955V28.5412H81.5435V24.3812ZM81.9275 36.7012H76.7435V14.3012H93.6715V18.4612H81.9275V36.7012ZM93.021 36.7012V14.3012H102.717C104.722 14.3012 106.45 14.6318 107.901 15.2932C109.352 15.9332 110.472 16.8612 111.261 18.0772C112.05 19.2932 112.445 20.7438 112.445 22.4292C112.445 24.0932 112.05 25.5332 111.261 26.7492C110.472 27.9438 109.352 28.8612 107.901 29.5012C106.45 30.1412 104.722 30.4612 102.717 30.4612H95.901L98.205 28.1892V36.7012H93.021ZM107.261 36.7012L101.661 28.5732H107.197L112.861 36.7012H107.261ZM98.205 28.7652L95.901 26.3332H102.429C104.029 26.3332 105.224 25.9918 106.013 25.3092C106.802 24.6052 107.197 23.6452 107.197 22.4292C107.197 21.1918 106.802 20.2318 106.013 19.5492C105.224 18.8665 104.029 18.5252 102.429 18.5252H95.901L98.205 16.0612V28.7652ZM117.16 23.3252H127.944V27.3572H117.16V23.3252ZM117.544 32.5412H129.736V36.7012H112.392V14.3012H129.32V18.4612H117.544V32.5412ZM137.061 37.0852C135.269 37.0852 133.552 36.8505 131.909 36.3812C130.266 35.8905 128.944 35.2612 127.941 34.4932L129.701 30.5892C130.661 31.2718 131.792 31.8372 133.093 32.2852C134.416 32.7118 135.749 32.9252 137.093 32.9252C138.117 32.9252 138.938 32.8292 139.557 32.6372C140.197 32.4238 140.666 32.1358 140.965 31.7732C141.264 31.4105 141.413 30.9945 141.413 30.5252C141.413 29.9278 141.178 29.4585 140.709 29.1172C140.24 28.7545 139.621 28.4665 138.853 28.2532C138.085 28.0185 137.232 27.8052 136.293 27.6132C135.376 27.3998 134.448 27.1438 133.509 26.8452C132.592 26.5465 131.749 26.1625 130.981 25.6932C130.213 25.2238 129.584 24.6052 129.093 23.8372C128.624 23.0692 128.389 22.0878 128.389 20.8932C128.389 19.6132 128.73 18.4505 129.413 17.4052C130.117 16.3385 131.162 15.4958 132.549 14.8772C133.957 14.2372 135.717 13.9172 137.829 13.9172C139.237 13.9172 140.624 14.0878 141.989 14.4292C143.354 14.7492 144.56 15.2398 145.605 15.9012L144.005 19.8372C142.96 19.2398 141.914 18.8025 140.869 18.5252C139.824 18.2265 138.8 18.0772 137.797 18.0772C136.794 18.0772 135.973 18.1945 135.333 18.4292C134.693 18.6638 134.234 18.9732 133.957 19.3572C133.68 19.7198 133.541 20.1465 133.541 20.6372C133.541 21.2132 133.776 21.6825 134.245 22.0452C134.714 22.3865 135.333 22.6638 136.101 22.8772C136.869 23.0905 137.712 23.3038 138.629 23.5172C139.568 23.7305 140.496 23.9758 141.413 24.2532C142.352 24.5305 143.205 24.9038 143.973 25.3732C144.741 25.8425 145.36 26.4612 145.829 27.2292C146.32 27.9972 146.565 28.9678 146.565 30.1412C146.565 31.3998 146.213 32.5518 145.509 33.5972C144.805 34.6425 143.749 35.4852 142.341 36.1252C140.954 36.7652 139.194 37.0852 137.061 37.0852ZM161.307 14.3012H166.491V36.7012H161.307V14.3012ZM151.131 36.7012H145.947V14.3012H151.131V36.7012ZM161.691 27.5172H150.747V23.1332H161.691V27.5172Z" fill="white"/>
<path d="M2.656 36.7012V14.3012H7.84V32.4772H19.072V36.7012H2.656ZM20.0798 36.7012V14.3012H25.2638V36.7012H20.0798ZM35.286 36.7012L25.622 14.3012H31.222L39.67 34.1412H36.374L44.95 14.3012H50.102L40.406 36.7012H35.286ZM54.8203 23.3252H65.6043V27.3572H54.8203V23.3252ZM55.2043 32.5412H67.3963V36.7012H50.0523V14.3012H66.9803V18.4612H55.2043V32.5412Z" fill="black"/>
<path d="M81.5435 24.3812H92.2955V28.5412H81.5435V24.3812ZM81.9275 36.7012H76.7435V14.3012H93.6715V18.4612H81.9275V36.7012ZM93.021 36.7012V14.3012H102.717C104.722 14.3012 106.45 14.6318 107.901 15.2932C109.352 15.9332 110.472 16.8612 111.261 18.0772C112.05 19.2932 112.445 20.7438 112.445 22.4292C112.445 24.0932 112.05 25.5332 111.261 26.7492C110.472 27.9438 109.352 28.8612 107.901 29.5012C106.45 30.1412 104.722 30.4612 102.717 30.4612H95.901L98.205 28.1892V36.7012H93.021ZM107.261 36.7012L101.661 28.5732H107.197L112.861 36.7012H107.261ZM98.205 28.7652L95.901 26.3332H102.429C104.029 26.3332 105.224 25.9918 106.013 25.3092C106.802 24.6052 107.197 23.6452 107.197 22.4292C107.197 21.1918 106.802 20.2318 106.013 19.5492C105.224 18.8665 104.029 18.5252 102.429 18.5252H95.901L98.205 16.0612V28.7652ZM117.16 23.3252H127.944V27.3572H117.16V23.3252ZM117.544 32.5412H129.736V36.7012H112.392V14.3012H129.32V18.4612H117.544V32.5412ZM137.061 37.0852C135.269 37.0852 133.552 36.8505 131.909 36.3812C130.266 35.8905 128.944 35.2612 127.941 34.4932L129.701 30.5892C130.661 31.2718 131.792 31.8372 133.093 32.2852C134.416 32.7118 135.749 32.9252 137.093 32.9252C138.117 32.9252 138.938 32.8292 139.557 32.6372C140.197 32.4238 140.666 32.1358 140.965 31.7732C141.264 31.4105 141.413 30.9945 141.413 30.5252C141.413 29.9278 141.178 29.4585 140.709 29.1172C140.24 28.7545 139.621 28.4665 138.853 28.2532C138.085 28.0185 137.232 27.8052 136.293 27.6132C135.376 27.3998 134.448 27.1438 133.509 26.8452C132.592 26.5465 131.749 26.1625 130.981 25.6932C130.213 25.2238 129.584 24.6052 129.093 23.8372C128.624 23.0692 128.389 22.0878 128.389 20.8932C128.389 19.6132 128.73 18.4505 129.413 17.4052C130.117 16.3385 131.162 15.4958 132.549 14.8772C133.957 14.2372 135.717 13.9172 137.829 13.9172C139.237 13.9172 140.624 14.0878 141.989 14.4292C143.354 14.7492 144.56 15.2398 145.605 15.9012L144.005 19.8372C142.96 19.2398 141.914 18.8025 140.869 18.5252C139.824 18.2265 138.8 18.0772 137.797 18.0772C136.794 18.0772 135.973 18.1945 135.333 18.4292C134.693 18.6638 134.234 18.9732 133.957 19.3572C133.68 19.7198 133.541 20.1465 133.541 20.6372C133.541 21.2132 133.776 21.6825 134.245 22.0452C134.714 22.3865 135.333 22.6638 136.101 22.8772C136.869 23.0905 137.712 23.3038 138.629 23.5172C139.568 23.7305 140.496 23.9758 141.413 24.2532C142.352 24.5305 143.205 24.9038 143.973 25.3732C144.741 25.8425 145.36 26.4612 145.829 27.2292C146.32 27.9972 146.565 28.9678 146.565 30.1412C146.565 31.3998 146.213 32.5518 145.509 33.5972C144.805 34.6425 143.749 35.4852 142.341 36.1252C140.954 36.7652 139.194 37.0852 137.061 37.0852ZM161.307 14.3012H166.491V36.7012H161.307V14.3012ZM151.131 36.7012H145.947V14.3012H151.131V36.7012ZM161.691 27.5172H150.747V23.1332H161.691V27.5172Z" fill="white"/>
</svg>
