<svg width="24" height="15" viewBox="0 0 24 15" fill="none" xmlns="http://www.w3.org/2000/svg">
<path fill-rule="evenodd" clip-rule="evenodd" d="M0 1.25C0 0.559644 0.671573 0 1.5 0H22.5C23.3284 0 24 0.559644 24 1.25C24 1.94036 23.3284 2.5 22.5 2.5H1.5C0.671573 2.5 0 1.94036 0 1.25ZM0 7.5C0 6.80964 0.671573 6.25 1.5 6.25H22.5C23.3284 6.25 24 6.80964 24 7.5C24 8.19036 23.3284 8.75 22.5 8.75H1.5C0.671573 8.75 0 8.19036 0 7.5ZM0 13.75C0 13.0596 0.671573 12.5 1.5 12.5H22.5C23.3284 12.5 24 13.0596 24 13.75C24 14.4404 23.3284 15 22.5 15H1.5C0.671573 15 0 14.4404 0 13.75Z" fill="white"/>
</svg>
