<svg width="30" height="30" viewBox="0 0 30 30" fill="none" xmlns="http://www.w3.org/2000/svg">
<path fill-rule="evenodd" clip-rule="evenodd" d="M15 0C23.2843 0 30 6.71573 30 15C30 23.2843 23.2843 30 15 30C6.71573 30 0 23.2843 0 15C0 11.0218 1.58035 7.20644 4.3934 4.3934C7.20644 1.58035 11.0218 0 15 0ZM15 4.5C12.5147 4.5 10.5 6.51472 10.5 9C10.5 11.4853 12.5147 13.5 15 13.5C17.4853 13.5 19.5 11.4853 19.5 9C19.5 6.51472 17.4853 4.5 15 4.5ZM15 25.4802C11.6774 25.4802 8.55089 23.9076 6.57005 21.24C6.26311 20.7913 6.22294 20.2117 6.46505 19.725L6.81005 19.02C7.56481 17.4796 9.12968 16.5023 10.845 16.5H19.155C20.8949 16.5019 22.4777 17.5065 23.22 19.08L23.535 19.74C23.7713 20.2227 23.7312 20.7949 23.43 21.24C21.4492 23.9076 18.3227 25.4802 15 25.4802Z" fill="white"/>
</svg>
