<svg width="24" height="24" viewBox="0 0 24 24" fill="none" xmlns="http://www.w3.org/2000/svg">
<path d="M11.9091 9.27273C12.4109 9.27273 12.8182 9.68091 12.8182 10.1818C12.8182 10.6827 12.4109 11.0909 11.9091 11.0909C11.4073 11.0909 11 10.6827 11 10.1818C11 9.68091 11.4073 9.27273 11.9091 9.27273ZM11.9091 7.45455C10.4027 7.45455 9.18182 8.67545 9.18182 10.1818C9.18182 11.6882 10.4027 12.9091 11.9091 12.9091C13.4155 12.9091 14.6364 11.6882 14.6364 10.1818C14.6364 8.67545 13.4155 7.45455 11.9091 7.45455ZM3.72727 11.0909C2.22091 11.0909 1 12.3118 1 13.8182C1 15.3245 2.22091 16.5455 3.72727 16.5455C5.23364 16.5455 6.45455 15.3245 6.45455 13.8182C6.45455 12.3118 5.23364 11.0909 3.72727 11.0909ZM20.0909 11.0909C18.5845 11.0909 17.3636 12.3118 17.3636 13.8182C17.3636 15.3245 18.5845 16.5455 20.0909 16.5455C21.5973 16.5455 22.8182 15.3245 22.8182 13.8182C22.8182 12.3118 21.5973 11.0909 20.0909 11.0909ZM11.9091 5.63636C12.2209 5.63636 12.5245 5.66818 12.8182 5.72818V2.90909C12.8182 2.40727 12.4118 2 11.9091 2C11.4064 2 11 2.40727 11 2.90909V5.72818C11.2936 5.66818 11.5973 5.63636 11.9091 5.63636ZM20.0909 9.27273C20.4027 9.27273 20.7064 9.30455 21 9.36455V2.90909C21 2.40727 20.5936 2 20.0909 2C19.5882 2 19.1818 2.40727 19.1818 2.90909V9.36455C19.4755 9.30455 19.7791 9.27273 20.0909 9.27273ZM20.0909 18.3636C19.7791 18.3636 19.4755 18.3318 19.1818 18.2718V21.0909C19.1818 21.5927 19.5882 22 20.0909 22C20.5936 22 21 21.5927 21 21.0909V18.2718C20.7064 18.3318 20.4027 18.3636 20.0909 18.3636ZM3.72727 9.27273C4.03909 9.27273 4.34273 9.30455 4.63636 9.36455V2.90909C4.63636 2.40727 4.23 2 3.72727 2C3.22455 2 2.81818 2.40727 2.81818 2.90909V9.36455C3.11182 9.30455 3.41545 9.27273 3.72727 9.27273ZM11.9091 14.7273C11.5973 14.7273 11.2936 14.6955 11 14.6355V21.0909C11 21.5927 11.4064 22 11.9091 22C12.4118 22 12.8182 21.5927 12.8182 21.0909V14.6355C12.5245 14.6955 12.2209 14.7273 11.9091 14.7273ZM3.72727 18.3636C3.41545 18.3636 3.11182 18.3318 2.81818 18.2718V21.0909C2.81818 21.5927 3.22455 22 3.72727 22C4.23 22 4.63636 21.5927 4.63636 21.0909V18.2718C4.34273 18.3318 4.03909 18.3636 3.72727 18.3636Z" fill="#F5F5F5" fill-opacity="0.5"/>
</svg>
