<svg width="24" height="24" viewBox="0 0 24 24" fill="none" xmlns="http://www.w3.org/2000/svg">
<g opacity="0.6">
<path d="M11.0013 3.05493C9.3168 3.24319 7.71968 3.90325 6.39375 4.95917C5.06783 6.01508 4.067 7.42392 3.50646 9.02355C2.94591 10.6232 2.84842 12.3486 3.22522 14.0012C3.60202 15.6538 4.43779 17.1664 5.63633 18.3649C6.83488 19.5635 8.34749 20.3992 10.0001 20.776C11.6527 21.1528 13.3781 21.0553 14.9777 20.4948C16.5773 19.9342 17.9862 18.9334 19.0421 17.6075C20.098 16.2816 20.7581 14.6844 20.9463 12.9999H11.0013V3.05493Z" stroke="#F5F5F5" stroke-width="3" stroke-linecap="round" stroke-linejoin="round"/>
<path d="M20.488 8.99996H15V3.51196C16.2654 3.96089 17.4147 4.6865 18.3641 5.6359C19.3135 6.5853 20.0391 7.73458 20.488 8.99996Z" stroke="#F5F5F5" stroke-width="3" stroke-linecap="round" stroke-linejoin="round"/>
</g>
</svg>
